<svg xmlns="http://www.w3.org/2000/svg" width="24" height="19.999" viewBox="0 0 24 19.999">
  <path id="Shape_1" data-name="Shape 1" d="M803,811.046a2,2,0,0,1-2-2v-7.9a.5.5,0,0,1,.768-.423c2.556,1.622,7.017,2.126,8.815,2.267a.5.5,0,0,1,.454.41,1.993,1.993,0,0,0,3.926,0,.5.5,0,0,1,.454-.409c1.8-.14,6.253-.643,8.816-2.268a.5.5,0,0,1,.769.422v7.9a2,2,0,0,1-2,2Zm11.944-9.447a1.993,1.993,0,0,0-3.887,0,.511.511,0,0,1-.529.385c-.868-.073-8.517-.788-9.5-3.453a.493.493,0,0,1-.031-.173v-2.309a2,2,0,0,1,2-2h5v-1a2,2,0,0,1,2-2h6a2,2,0,0,1,2,2v1h5a2,2,0,0,1,2,2v2.309a.493.493,0,0,1-.031.173c-.984,2.676-8.627,3.384-9.5,3.456l-.042,0A.5.5,0,0,1,814.944,801.6ZM810,794.047h6v-1h-6Z" transform="translate(-801 -791.047)" fill="#e7643e"/>
</svg>
