<svg xmlns="http://www.w3.org/2000/svg" width="45.068" height="35.737" viewBox="0 0 45.068 35.737">
  <path id="Path_4" data-name="Path 4" d="M41.831-54.463l-1.27-2.095q10.791-5.713,10.791-10.791,0-2.158-4.062-4.253a15.031,15.031,0,0,1-5.046-3.809,8.038,8.038,0,0,1-1.428-4.951A9.475,9.475,0,0,1,43.7-87.312,9.4,9.4,0,0,1,50.591-90.2a8.7,8.7,0,0,1,7.2,3.555,14.68,14.68,0,0,1,2.761,9.268,21.424,21.424,0,0,1-7.109,16.123,28.177,28.177,0,0,1-4.729,3.586A54.424,54.424,0,0,1,41.831-54.463Zm-25.073,0-1.27-2.095q10.791-5.776,10.791-10.791a2.971,2.971,0,0,0-.889-2.126A13.183,13.183,0,0,0,22.217-71.6a14.1,14.1,0,0,1-4.983-3.777,8.1,8.1,0,0,1-1.492-4.983A9.5,9.5,0,0,1,18.6-87.344,9.35,9.35,0,0,1,25.454-90.2a8.76,8.76,0,0,1,7.268,3.555,14.68,14.68,0,0,1,2.761,9.268,21.272,21.272,0,0,1-1.809,8.633,23,23,0,0,1-5.364,7.49A37.657,37.657,0,0,1,16.758-54.463Z" transform="translate(60.557 -54.463) rotate(-180)" fill="#e7643e"/>
</svg>
