<?xml version="1.0" encoding="utf-8"?>
<!-- Generator: Adobe Illustrator 22.1.0, SVG Export Plug-In . SVG Version: 6.00 Build 0)  -->
<svg version="1.1" id="Layer_1" xmlns="http://www.w3.org/2000/svg" xmlns:xlink="http://www.w3.org/1999/xlink" x="0px" y="0px"
viewBox="0 0 477 178.2" style="enable-background:new 0 0 477 178.2;" xml:space="preserve" width="120" height="45"> 
<style type="text/css">
	.st0{fill:#F5823D;}
	.st1{fill:#393939;}
	.st2{fill-rule:evenodd;clip-rule:evenodd;fill:#FFFFFF;}
</style>
<g>
	<g>
		<g>
			<path class="st0" d="M115.4,0H80.8c-2.4,0-3.6,1-3.6,3.6V16c0,2.4,1.2,3.6,3.6,3.6h12.1L68.2,90.2L40.5,3.3C39.8,1,38.3,0,36,0
				H4.9C2.5,0,1.4,1,1.4,3.6V16c0,2.4,1.2,3.6,3.6,3.6h11.9l36,101.2l-5.9,15.8c-5.9,16-10,19.1-19.2,19.1c-7.1,0-12.3-1.7-18.7-3.8
				c-2.4-0.7-3.8-0.2-4.5,2.1l-4,11.7c-0.7,2.4-0.7,3.3,1.7,4.5c4.5,2.1,15.4,5.3,26.3,5.3c26.1,0,33-15.3,40.5-34.9L119.7,7.2
				C121.1,3.6,119.2,0,115.4,0z M456.8,133.6h6.1c3.8,0,4.9-1,5.1-4.9l5.6-85.1V5c0-3.8-1-4.9-4.9-4.9H451c-3.8,0-4.9,1-4.9,4.9
				v38.1l5.6,85.6C452,132.5,453,133.6,456.8,133.6z M459.6,146.1c-10.2,0-17.1,7.2-17.1,15.8c0,8.9,6.4,15.8,17.4,15.8
				c11.2,0,17.1-7.4,17.1-16.1C477,152.5,470.1,146.1,459.6,146.1z"/>
		</g>
	</g>
	<path class="st1" d="M439.1,87.6c0,26.2-8.4,47.8-25.2,65c-16.8,17.1-38.2,25.7-64.1,25.7H194.4c-25.8,0-47.1-8.6-64-25.7
		c-16.9-17.1-25.3-38.8-25.3-65c0-26,8.4-46.9,25.1-62.9c16.7-15.9,38.1-23.9,64.3-23.9h155.4c26.3,0,47.8,8,64.4,23.9
		C430.8,40.6,439.1,61.6,439.1,87.6z"/>
	<g>
		<g>
			<path class="st2" d="M190.5,50.8h-32.3v74.6h17.2v-20.6h15c19.9,0,32.4-10.3,32.4-26.9C222.9,61.2,210.4,50.8,190.5,50.8z
				 M189.6,90.8h-14.1V64.9h14.1c10.5,0,15.9,4.8,15.9,13C205.4,86,200.1,90.8,189.6,90.8z M299.7,77.9c0-16.7-12.5-27.1-32.4-27.1
				h-32.3v74.6h17.2v-20.8h15.9l14.4,20.8h18.5l-16.7-24C294.1,97.3,299.7,89.1,299.7,77.9z M266.4,90.9h-14.1v-26h14.1
				c10.5,0,15.9,4.8,15.9,13C282.3,86,277,90.9,266.4,90.9z M369,101.8l-0.1,0.4l-0.1-0.1c-4.3,6.5-11.7,10.8-20.1,10.8
				c-13.3,0-24.1-10.8-24.1-24.2c0-13.4,10.8-24.2,24.1-24.2s24.1,10.8,24.1,24.2c0,1.6-0.2,3.1-0.4,4.6l11.7,12.1
				c2.4-5.1,3.7-10.7,3.7-16.6c0-21.7-17.5-39.2-39.1-39.2c-21.6,0-39.1,17.6-39.1,39.2c0,21.7,17.5,39.2,39.1,39.2
				c7.3,0,14.1-2,19.9-5.5l39.4,39.4l11-10L369,101.8z"/>
		</g>
	</g>
</g>
</svg>
